<svg width="95" height="95" viewBox="0 0 95 95" fill="none" xmlns="http://www.w3.org/2000/svg">
<path d="M88.7062 41.9188L80.5916 33.8042V22.2854C80.5916 20.1858 79.7576 18.1722 78.2729 16.6875C76.7882 15.2028 74.7746 14.3688 72.675 14.3688H61.1958L53.0812 6.45209C51.5979 4.9776 49.5915 4.14998 47.5 4.14998C45.4085 4.14998 43.402 4.9776 41.9187 6.45209L33.8041 14.4083H22.2854C20.1858 14.4083 18.1721 15.2424 16.6875 16.7271C15.2028 18.2117 14.3687 20.2254 14.3687 22.325V33.8042L6.45207 41.9188C5.68721 42.6373 5.07287 43.5008 4.64475 44.459C4.21664 45.4171 3.9833 46.4508 3.95832 47.5C3.95665 49.5906 4.78196 51.5969 6.25415 53.0813L14.4083 61.1958V72.7146C14.4083 74.8142 15.2424 76.8279 16.7271 78.3125C18.2117 79.7972 20.2253 80.6313 22.325 80.6313H33.8041L41.9187 88.7458C43.403 90.218 45.4094 91.0433 47.5 91.0417C49.5906 91.0433 51.5969 90.218 53.0812 88.7458L61.1958 80.5917H72.7146C74.8142 80.5917 76.8278 79.7576 78.3125 78.2729C79.7972 76.7883 80.6312 74.7746 80.6312 72.675V61.1958L88.7458 53.0813C90.2203 51.598 91.0479 49.5915 91.0479 47.5C91.0479 45.4085 90.2203 43.402 88.7458 41.9188H88.7062ZM72.675 57.95V72.675H57.95L47.5 83.125L37.05 72.675H22.325V57.95L11.875 47.5L22.325 37.05V22.325H37.05L47.5 11.875L57.95 22.325H72.675V37.05L83.125 47.5L72.675 57.95Z" fill="#4DCDFF"/>
<path d="M43.5417 50.3896L34.4771 41.325L28.8563 46.9062L43.5417 61.5917L66.1438 38.9896L60.5229 33.4083L43.5417 50.3896Z" fill="#4DCDFF"/>
</svg>
